<svg xmlns="http://www.w3.org/2000/svg" width="340" height="760" viewBox="0 0 340 760">
  <defs>
    <linearGradient id="bg1" x1="0" y1="0" x2="1" y2="1">
      <stop offset="0%" stop-color="#f8faff"/>
      <stop offset="100%" stop-color="#eef2ff"/>
    </linearGradient>
    <linearGradient id="accent1" x1="0" y1="0" x2="1" y2="0">
      <stop offset="0%" stop-color="#6d5efc"/>
      <stop offset="100%" stop-color="#8b5cf6"/>
    </linearGradient>
  </defs>
  <rect width="340" height="760" rx="18" fill="url(#bg1)"/>
  <rect x="0" y="0" width="340" height="74" rx="18" fill="#ffffff"/>
  <text x="24" y="45" font-size="38" font-family="Segoe UI, Arial" font-weight="700" fill="#21244d">Settings</text>
  <text x="302" y="45" font-size="36" font-family="Segoe UI, Arial" font-weight="700" fill="#9aa2c5">×</text>
  <line x1="0" y1="74" x2="340" y2="74" stroke="#dbe2ff"/>

  <text x="24" y="110" font-size="17" font-family="Segoe UI, Arial" font-weight="700" letter-spacing="1.5" fill="#7f8bb6">GENERAL</text>
  <rect x="20" y="124" width="300" height="98" rx="14" fill="#ffffff" stroke="#dbe2ff"/>
  <text x="34" y="156" font-size="20" font-family="Segoe UI, Arial" font-weight="700" fill="#272b59">Launch at Windows startup</text>
  <text x="34" y="184" font-size="14" font-family="Segoe UI, Arial" fill="#8a94bc">Start Clippy automatically after login</text>
  <rect x="260" y="154" width="48" height="26" rx="13" fill="url(#accent1)"/>
  <circle cx="292" cy="167" r="10" fill="#ffffff"/>

  <text x="24" y="262" font-size="17" font-family="Segoe UI, Arial" font-weight="700" letter-spacing="1.5" fill="#7f8bb6">DISPLAY</text>
  <rect x="20" y="276" width="145" height="86" rx="12" fill="#ffffff" stroke="#d7defd"/>
  <text x="78" y="330" text-anchor="middle" font-size="24" font-family="Segoe UI, Arial" font-weight="700" fill="#2f356b">Night</text>
  <rect x="175" y="276" width="145" height="86" rx="12" fill="#f1edff" stroke="#8b5cf6" stroke-width="2"/>
  <text x="247" y="330" text-anchor="middle" font-size="24" font-family="Segoe UI, Arial" font-weight="700" fill="#6d5efc">Daylight</text>

  <text x="24" y="402" font-size="17" font-family="Segoe UI, Arial" font-weight="700" letter-spacing="1.5" fill="#7f8bb6">CAPTURE</text>
  <rect x="20" y="416" width="300" height="120" rx="14" fill="#ffffff" stroke="#dbe2ff"/>
  <text x="34" y="448" font-size="20" font-family="Segoe UI, Arial" font-weight="700" fill="#272b59">Capture speed</text>
  <rect x="34" y="464" width="88" height="34" rx="17" fill="#eef2ff" stroke="#cdd7ff"/>
  <text x="78" y="486" text-anchor="middle" font-size="16" font-family="Segoe UI, Arial" font-weight="600" fill="#4a5582">Fast</text>
  <rect x="128" y="464" width="100" height="34" rx="17" fill="#dcd4ff" stroke="#8b5cf6"/>
  <text x="178" y="486" text-anchor="middle" font-size="16" font-family="Segoe UI, Arial" font-weight="700" fill="#4f46e5">Normal</text>
  <rect x="234" y="464" width="72" height="34" rx="17" fill="#eef2ff" stroke="#cdd7ff"/>
  <text x="270" y="486" text-anchor="middle" font-size="16" font-family="Segoe UI, Arial" font-weight="600" fill="#4a5582">Relaxed</text>

  <text x="24" y="574" font-size="17" font-family="Segoe UI, Arial" font-weight="700" letter-spacing="1.5" fill="#7f8bb6">DATA</text>
  <rect x="20" y="588" width="300" height="54" rx="12" fill="#ffffff" stroke="#d7defd"/>
  <text x="34" y="622" font-size="22" font-family="Segoe UI, Arial" font-weight="700" fill="#5a6699">Open Backup Folder</text>
  <rect x="20" y="652" width="300" height="54" rx="12" fill="#fff5f5" stroke="#f1b4b4"/>
  <text x="34" y="686" font-size="22" font-family="Segoe UI, Arial" font-weight="700" fill="#c24141">Clear All Data</text>
</svg>
