<svg xmlns="http://www.w3.org/2000/svg" width="340" height="760" viewBox="0 0 340 760">
  <defs>
    <linearGradient id="bg3" x1="0" y1="0" x2="1" y2="1">
      <stop offset="0%" stop-color="#12172a"/>
      <stop offset="100%" stop-color="#0c1222"/>
    </linearGradient>
    <linearGradient id="accent3" x1="0" y1="0" x2="1" y2="0">
      <stop offset="0%" stop-color="#6d5efc"/>
      <stop offset="100%" stop-color="#4fd1ff"/>
    </linearGradient>
  </defs>
  <rect width="340" height="760" rx="18" fill="url(#bg3)"/>
  <rect x="0" y="0" width="340" height="84" rx="18" fill="#171f37"/>
  <text x="24" y="50" font-size="36" font-family="Segoe UI, Arial" font-weight="700" fill="#f3f6ff">Settings</text>
  <circle cx="304" cy="42" r="16" fill="#232d4b"/>
  <text x="304" y="48" text-anchor="middle" font-size="24" font-family="Segoe UI, Arial" font-weight="700" fill="#b9c5e8">×</text>
  <line x1="0" y1="84" x2="340" y2="84" stroke="#2a365a"/>

  <text x="24" y="122" font-size="16" font-family="Segoe UI, Arial" font-weight="700" letter-spacing="1.5" fill="#93a5d6">GENERAL</text>
  <rect x="20" y="136" width="300" height="94" rx="14" fill="#141d34" stroke="#2d3d67"/>
  <text x="34" y="168" font-size="20" font-family="Segoe UI, Arial" font-weight="700" fill="#e8eeff">Launch at Windows startup</text>
  <text x="34" y="196" font-size="14" font-family="Segoe UI, Arial" fill="#96a6d2">Start Clippy automatically after login</text>
  <rect x="258" y="164" width="50" height="26" rx="13" fill="url(#accent3)"/>
  <circle cx="290" cy="177" r="10" fill="#fff"/>

  <text x="24" y="270" font-size="16" font-family="Segoe UI, Arial" font-weight="700" letter-spacing="1.5" fill="#93a5d6">DISPLAY</text>
  <rect x="20" y="284" width="144" height="80" rx="12" fill="#131c31" stroke="#2a3a64"/>
  <text x="92" y="334" text-anchor="middle" font-size="22" font-family="Segoe UI, Arial" font-weight="700" fill="#afbddf">Night</text>
  <rect x="176" y="284" width="144" height="80" rx="12" fill="#1a2442" stroke="#6d5efc" stroke-width="2"/>
  <text x="248" y="334" text-anchor="middle" font-size="22" font-family="Segoe UI, Arial" font-weight="700" fill="#8f82ff">Daylight</text>

  <text x="24" y="404" font-size="16" font-family="Segoe UI, Arial" font-weight="700" letter-spacing="1.5" fill="#93a5d6">CAPTURE</text>
  <rect x="20" y="418" width="300" height="116" rx="14" fill="#141d34" stroke="#2d3d67"/>
  <text x="34" y="450" font-size="20" font-family="Segoe UI, Arial" font-weight="700" fill="#e8eeff">Capture speed</text>
  <rect x="34" y="466" width="86" height="32" rx="16" fill="#101a30" stroke="#2e3f6f"/>
  <text x="77" y="487" text-anchor="middle" font-size="15" font-family="Segoe UI, Arial" font-weight="700" fill="#a3b2dc">Fast</text>
  <rect x="126" y="466" width="96" height="32" rx="16" fill="#2a2952" stroke="#7c6bff"/>
  <text x="174" y="487" text-anchor="middle" font-size="15" font-family="Segoe UI, Arial" font-weight="700" fill="#c2bbff">Normal</text>
  <rect x="228" y="466" width="78" height="32" rx="16" fill="#101a30" stroke="#2e3f6f"/>
  <text x="267" y="487" text-anchor="middle" font-size="15" font-family="Segoe UI, Arial" font-weight="700" fill="#a3b2dc">Relaxed</text>

  <text x="24" y="574" font-size="16" font-family="Segoe UI, Arial" font-weight="700" letter-spacing="1.5" fill="#93a5d6">DATA</text>
  <rect x="20" y="588" width="300" height="52" rx="12" fill="#17213a" stroke="#30436f"/>
  <text x="34" y="621" font-size="21" font-family="Segoe UI, Arial" font-weight="700" fill="#c7d4f7">Open Backup Folder</text>
  <rect x="20" y="650" width="300" height="52" rx="12" fill="#2a1e2a" stroke="#8b3e4a"/>
  <text x="34" y="683" font-size="21" font-family="Segoe UI, Arial" font-weight="700" fill="#ff9aa9">Clear All Data</text>
</svg>
